<svg width="35" height="34" viewBox="0 0 35 34" fill="none" xmlns="http://www.w3.org/2000/svg">
<path d="M32.4601 8.66444C30.9044 5.99897 28.7942 3.88871 26.129 2.3332C23.4634 0.7776 20.5533 0 17.3967 0C14.2405 0 11.3295 0.777838 8.66444 2.3332C5.99897 3.88863 3.88887 5.99897 2.3332 8.66444C0.777759 11.3298 0 14.2404 0 17.3962C0 21.187 1.10598 24.5958 3.31851 27.6235C5.53079 30.6514 8.38873 32.7466 11.8921 33.9093C12.2999 33.985 12.6018 33.9317 12.7981 33.7509C12.9944 33.5699 13.0925 33.3431 13.0925 33.0716C13.0925 33.0263 13.0886 32.6187 13.0811 31.8484C13.0733 31.0781 13.0696 30.4061 13.0696 29.8328L12.5486 29.9229C12.2164 29.9837 11.7974 30.0095 11.2914 30.0022C10.7857 29.9952 10.2607 29.9422 9.71718 29.8436C9.17339 29.746 8.66761 29.5194 8.19943 29.1646C7.73149 28.8097 7.3993 28.3451 7.20294 27.7717L6.97642 27.2504C6.82544 26.9034 6.58774 26.5179 6.26301 26.0953C5.93827 25.6724 5.60989 25.3857 5.2777 25.2347L5.1191 25.1211C5.01342 25.0457 4.91536 24.9547 4.82467 24.8491C4.73407 24.7435 4.66623 24.6378 4.62093 24.532C4.57555 24.4261 4.61316 24.3392 4.73415 24.271C4.85514 24.2029 5.0738 24.1698 5.39107 24.1698L5.84394 24.2375C6.14598 24.298 6.51959 24.4788 6.96524 24.781C7.41064 25.083 7.77679 25.4755 8.06376 25.9586C8.41127 26.5779 8.82994 27.0498 9.32096 27.3745C9.8116 27.6993 10.3063 27.8613 10.8045 27.8613C11.3028 27.8613 11.7331 27.8236 12.0957 27.7484C12.4579 27.6729 12.7977 27.5594 13.1149 27.4085C13.2509 26.3963 13.6209 25.6187 14.2247 25.0751C13.3641 24.9847 12.5903 24.8484 11.903 24.6673C11.2161 24.486 10.5062 24.1916 9.77391 23.7835C9.04122 23.3759 8.4334 22.8698 7.95031 22.2661C7.46713 21.662 7.0706 20.8689 6.76126 19.8876C6.45176 18.9058 6.29696 17.7733 6.29696 16.4898C6.29696 14.6622 6.89359 13.107 8.08661 11.8233C7.52775 10.4493 7.58051 8.90904 8.24505 7.20262C8.683 7.06655 9.33247 7.16866 10.1931 7.50831C11.054 7.84812 11.6842 8.13921 12.0846 8.38056C12.4849 8.62183 12.8057 8.82629 13.0474 8.99211C14.452 8.59962 15.9016 8.40333 17.3965 8.40333C18.8915 8.40333 20.3414 8.59962 21.7461 8.99211L22.6069 8.44871C23.1955 8.08613 23.8906 7.75386 24.6905 7.45182C25.4909 7.14994 26.1029 7.06679 26.5259 7.20286C27.2052 8.90936 27.2657 10.4496 26.7067 11.8236C27.8997 13.1073 28.4965 14.6628 28.4965 16.49C28.4965 17.7736 28.3412 18.9096 28.0322 19.8989C27.7227 20.8883 27.3228 21.6806 26.8322 22.2774C26.341 22.8741 25.7293 23.3762 24.997 23.7837C24.2645 24.1915 23.5544 24.4859 22.8675 24.6672C22.1803 24.8486 21.4065 24.9849 20.5458 25.0755C21.3308 25.7548 21.7234 26.8271 21.7234 28.2918V33.071C21.7234 33.3425 21.8178 33.5691 22.0068 33.7503C22.1955 33.9311 22.4936 33.9843 22.9014 33.9086C26.4052 32.746 29.2632 30.6507 31.4754 27.6229C33.6874 24.5952 34.7937 21.1864 34.7937 17.3956C34.7929 14.2402 34.0148 11.3298 32.4601 8.66444Z" fill="white"/>
</svg>
