<svg width="34" height="34" viewBox="0 0 34 34" fill="none" xmlns="http://www.w3.org/2000/svg">
<path d="M28.4047 11.2697C28.3253 11.2446 28.25 11.2175 28.1664 11.1945C28.066 11.1715 27.9656 11.1526 27.8632 11.1359C27.4659 11.0565 27.031 11 26.5208 11C22.1592 11 19.3929 14.1719 18.4813 15.3972V11H11V34H18.4813V21.4545C18.4813 21.4545 24.1351 13.5802 26.5208 19.3636C26.5208 24.5261 26.5208 34 26.5208 34H34V18.4792C34 15.0041 31.6185 12.1082 28.4047 11.2697Z" fill="white"/>
<path d="M7.76721 10.559H0.211182V34H7.76721V10.559Z" fill="white"/>
<path d="M3.90683 7.3913C5.94789 7.3913 7.60249 5.7367 7.60249 3.69565C7.60249 1.6546 5.94789 0 3.90683 0C1.86578 0 0.211182 1.6546 0.211182 3.69565C0.211182 5.7367 1.86578 7.3913 3.90683 7.3913Z" fill="white"/>
</svg>
