<svg width="35" height="28" viewBox="0 0 35 28" fill="none" xmlns="http://www.w3.org/2000/svg">
<path d="M34.764 3.79663C33.5075 4.34781 32.1686 4.71315 30.7727 4.89054C32.2087 4.03315 33.3047 2.68582 33.82 1.06185C32.4811 1.86011 31.0029 2.42396 29.4275 2.73862C28.1562 1.38496 26.3442 0.54657 24.3676 0.54657C20.5325 0.54657 17.4451 3.65937 17.4451 7.47539C17.4451 8.02446 17.4916 8.55241 17.6056 9.05502C11.8467 8.77415 6.75094 6.01402 3.32771 1.80943C2.73007 2.84632 2.37951 4.03315 2.37951 5.31079C2.37951 7.7098 3.61491 9.83638 5.4564 11.0676C4.34348 11.0464 3.25168 10.7233 2.32671 10.2144C2.32671 10.2355 2.32671 10.263 2.32671 10.2904C2.32671 13.6566 4.72783 16.4527 7.87652 17.0968C7.31267 17.2509 6.69814 17.3248 6.06038 17.3248C5.6169 17.3248 5.1692 17.2995 4.74895 17.2066C5.64646 19.9498 8.1933 21.9666 11.2216 22.032C8.86485 23.8756 5.87243 24.9864 2.63292 24.9864C2.06485 24.9864 1.52 24.9611 0.975159 24.8914C4.04361 26.8702 7.68013 28 11.6017 28C24.3486 28 31.3175 17.441 31.3175 8.28843C31.3175 7.98222 31.307 7.68657 31.2922 7.39303C32.667 6.41738 33.8221 5.19887 34.764 3.79663Z" fill="white"/>
</svg>
